<svg xmlns="http://www.w3.org/2000/svg" viewBox="0 0 80 32" width="42" height="16">
  <style>rect{fill:#121619}</style>
  <!-- IBM stripes simplified -->
  <rect x="0" y="0" width="12" height="4" rx="1"/>
  <rect x="0" y="6" width="12" height="4" rx="1"/>
  <rect x="0" y="12" width="12" height="4" rx="1"/>
  <rect x="0" y="18" width="12" height="4" rx="1"/>
  <rect x="0" y="24" width="12" height="4" rx="1"/>
  <rect x="16" y="0" width="18" height="4" rx="1"/>
  <rect x="16" y="6" width="18" height="4" rx="1"/>
  <rect x="22" y="12" width="6" height="4" rx="1"/>
  <rect x="16" y="18" width="18" height="4" rx="1"/>
  <rect x="16" y="24" width="18" height="4" rx="1"/>
  <rect x="38" y="0" width="18" height="4" rx="1"/>
  <rect x="38" y="6" width="13" height="4" rx="1"/>
  <rect x="38" y="12" width="18" height="4" rx="1"/>
  <rect x="38" y="18" width="13" height="4" rx="1"/>
  <rect x="38" y="24" width="18" height="4" rx="1"/>
  <text x="58" y="28" font-family="Arial,sans-serif" font-size="30" font-weight="bold" fill="#121619">IBM</text>
</svg>
